<svg width="40" height="40" viewBox="0 0 40 40" fill="none" xmlns="http://www.w3.org/2000/svg">
<path fill-rule="evenodd" clip-rule="evenodd" d="M17.2222 3.65446C18.9411 2.66206 21.0588 2.66206 22.7777 3.65446L32.767 9.42179C34.4859 10.4142 35.5448 12.2482 35.5448 14.233V25.7677C35.5448 27.7525 34.4859 29.5866 32.767 30.579L22.7777 36.3463C21.0588 37.3387 18.9411 37.3387 17.2222 36.3463L7.23286 30.579C5.51396 29.5866 4.45508 27.7525 4.45508 25.7677L4.45508 14.233C4.45508 12.2482 5.51396 10.4142 7.23286 9.42179L17.2222 3.65446ZM21.6666 5.57896C20.6353 4.98352 19.3646 4.98352 18.3333 5.57896L8.34397 11.3463C7.31263 11.9417 6.6773 13.0422 6.6773 14.233L6.6773 25.7677C6.6773 26.9586 7.31263 28.059 8.34397 28.6545L18.3333 34.4218C19.3646 35.0172 20.6353 35.0172 21.6666 34.4218L31.6559 28.6545C32.6873 28.059 33.3226 26.9586 33.3226 25.7677V14.233C33.3226 13.0422 32.6873 11.9417 31.6559 11.3463L21.6666 5.57896Z" fill="#E72D2D"/>
<path fill-rule="evenodd" clip-rule="evenodd" d="M21.1111 11.334L21.1111 35.5562L18.8889 35.5562L18.8889 11.334L21.1111 11.334Z" fill="#E72D2D"/>
<path fill-rule="evenodd" clip-rule="evenodd" d="M28.0001 16.8887L28.0001 31.9998L25.7778 31.9998L25.7778 16.8887L28.0001 16.8887Z" fill="#E72D2D"/>
<path fill-rule="evenodd" clip-rule="evenodd" d="M14.0001 16.8887L14.0001 31.9998L11.7778 31.9998L11.7778 16.8887L14.0001 16.8887Z" fill="#E72D2D"/>
<path fill-rule="evenodd" clip-rule="evenodd" d="M10.4444 20.8887L10.4444 29.9998L8.22217 29.9998L8.22217 20.8887L10.4444 20.8887Z" fill="#E72D2D"/>
<path fill-rule="evenodd" clip-rule="evenodd" d="M17.5555 25.7773L17.5555 34.8885L15.3333 34.8885L15.3333 25.7773L17.5555 25.7773Z" fill="#E72D2D"/>
<path fill-rule="evenodd" clip-rule="evenodd" d="M24.6666 25.7773L24.6666 34.8885L22.4443 34.8885L22.4443 25.7773L24.6666 25.7773Z" fill="#E72D2D"/>
<path fill-rule="evenodd" clip-rule="evenodd" d="M31.7779 22L31.7779 31.1111L29.5557 31.1111L29.5557 22L31.7779 22Z" fill="#E72D2D"/>
</svg>
